<svg t="1729176463634" class="icon" viewBox="0 0 1024 1024" version="1.1" xmlns="http://www.w3.org/2000/svg" p-id="8199" width="1em" height="1em"><path d="M512 744.96c-128.426667 0-232.96-104.533333-232.96-232.96S383.573333 279.04 512 279.04s232.96 104.533333 232.96 232.96-104.533333 232.96-232.96 232.96z m0-380.586667a147.669333 147.669333 0 0 0 0 295.253334 147.669333 147.669333 0 0 0 0-295.253334zM512 201.813333c-23.466667 0-42.666667-19.2-42.666667-42.666666V98.133333c0-23.466667 19.2-42.666667 42.666667-42.666666s42.666667 19.2 42.666667 42.666666v61.013334c0 23.466667-18.773333 42.666667-42.666667 42.666666zM512 968.533333c-23.466667 0-42.666667-19.2-42.666667-42.666666v-61.013334c0-23.466667 19.2-42.666667 42.666667-42.666666s42.666667 19.2 42.666667 42.666666v61.013334c0 23.466667-18.773333 42.666667-42.666667 42.666666zM925.866667 554.666667h-61.013334c-23.466667 0-42.666667-19.2-42.666666-42.666667s19.2-42.666667 42.666666-42.666667h61.013334c23.466667 0 42.666667 19.2 42.666666 42.666667s-19.2 42.666667-42.666666 42.666667zM159.146667 554.666667H98.56c-23.466667 0-42.666667-19.2-42.666667-42.666667s19.2-42.666667 42.666667-42.666667h61.013333c23.466667 0 42.666667 19.2 42.666667 42.666667s-19.2 42.666667-43.093333 42.666667zM768.426667 298.24c-11.093333 0-21.76-4.266667-30.293334-12.373333a42.496 42.496 0 0 1 0-60.16l85.333334-85.333334a42.496 42.496 0 1 1 60.16 60.16l-85.333334 85.333334a40.96 40.96 0 0 1-29.866666 12.373333zM171.093333 896c-11.093333 0-21.76-4.266667-30.293333-12.373333a42.496 42.496 0 0 1 0-60.16l85.333333-85.333334a42.496 42.496 0 1 1 60.16 60.16l-85.333333 85.333334c-8.106667 8.106667-19.2 12.373333-29.866667 12.373333zM853.76 896.426667c-11.093333 0-21.76-4.266667-30.293333-12.373334l-85.333334-85.333333a42.496 42.496 0 1 1 60.16-60.16l85.333334 85.333333a42.496 42.496 0 0 1-29.866667 72.533334zM256.426667 298.666667c-11.093333 0-22.186667-4.266667-30.293334-12.373334l-85.333333-85.333333A42.496 42.496 0 1 1 200.96 140.8l85.333333 85.333333a42.496 42.496 0 0 1-29.866666 72.533334z" p-id="8200" fill="#8a8a8a"></path></svg>